<svg width="14" height="14" viewBox="0 0 14 14" fill="none" xmlns="http://www.w3.org/2000/svg">
<path d="M7 8L7.35355 7.64645L7 7.29289L6.64645 7.64645L7 8ZM7.5 13V8H6.5V13H7.5ZM6.64645 8.35355L9.14645 10.8536L9.85355 10.1464L7.35355 7.64645L6.64645 8.35355ZM6.64645 7.64645L4.14645 10.1464L4.85355 10.8536L7.35355 8.35355L6.64645 7.64645Z" fill="#333333"/>
<path d="M7 6L6.64645 6.35355L7 6.70711L7.35355 6.35355L7 6ZM6.5 1L6.5 6L7.5 6L7.5 1L6.5 1ZM7.35355 5.64645L4.85355 3.14645L4.14645 3.85355L6.64645 6.35355L7.35355 5.64645ZM7.35355 6.35355L9.85355 3.85355L9.14645 3.14645L6.64645 5.64645L7.35355 6.35355Z" fill="#333333"/>
</svg>
